<svg width="21" height="22" viewBox="0 0 21 22" fill="none" xmlns="http://www.w3.org/2000/svg">
<g opacity="0.7">
<path d="M0.535921 10.8669C0.617478 5.34462 5.16026 0.934066 10.6825 1.01562C16.2047 1.09718 20.6153 5.63996 20.5337 11.1622C20.4522 16.6845 15.9094 21.095 10.3872 21.0134C4.86491 20.9319 0.454364 16.3891 0.535921 10.8669Z" fill="#111111"/>
<path d="M6.9601 15.556C6.95935 15.2538 7.05403 15.0156 7.24412 14.8413C7.43942 14.6671 7.69852 14.5824 8.0214 14.5872L9.61497 14.6107L9.67935 10.2518L8.3045 10.2315C7.98683 10.2268 7.73292 10.1371 7.54277 9.9624C7.3579 9.78257 7.26506 9.54419 7.26423 9.24727C7.26341 8.95035 7.36061 8.71739 7.55584 8.54838C7.75114 8.37416 8.01023 8.28943 8.33311 8.2942L10.7703 8.3302C11.0724 8.33466 11.3133 8.42677 11.4929 8.60652C11.6726 8.78628 11.7601 9.02978 11.7556 9.33704L11.6772 14.6412L12.8802 14.6589C13.2083 14.6638 13.4648 14.7561 13.6497 14.9359C13.8397 15.1158 13.9299 15.3568 13.9203 15.6588C13.9108 15.9503 13.811 16.1832 13.6209 16.3575C13.4308 16.5266 13.1744 16.6088 12.8515 16.604L7.99267 16.5323C7.675 16.5276 7.42369 16.4379 7.23875 16.2633C7.05388 16.0835 6.961 15.8477 6.9601 15.556ZM9.15019 5.34501C9.1558 4.96484 9.29073 4.64649 9.55496 4.38994C9.8192 4.1334 10.1388 4.0079 10.5138 4.01344C10.8939 4.01905 11.2097 4.15394 11.461 4.41809C11.7175 4.68233 11.843 5.00453 11.8374 5.3847C11.8319 5.75965 11.6969 6.07801 11.4326 6.33976C11.1736 6.59638 10.854 6.72188 10.4738 6.71627C10.0989 6.71073 9.78312 6.57584 9.52658 6.31161C9.27012 6.04217 9.14465 5.71997 9.15019 5.34501Z" fill="#F6F6F6"/>
</g>
</svg>